<svg width="106" height="36" viewBox="0 0 106 36" fill="none" xmlns="http://www.w3.org/2000/svg">
<path fill-rule="evenodd" clip-rule="evenodd" d="M34.4004 25.8L42.4629 33.781L40.3897 35.8333L34.4004 29.9045L28.4111 35.8333L26.3379 33.781L34.4004 25.8Z" fill="#375DE7"/>
<path fill-rule="evenodd" clip-rule="evenodd" d="M12.2126 13.7688H17.9445V18.1954C16.2739 19.7763 14.2289 20.6098 11.9246 20.6098C7.11443 20.6098 3.19717 16.5857 3.19717 11.9579C3.19717 7.27268 7.17204 3.24854 11.9246 3.24854C14.2289 3.24854 16.6771 4.34081 18.751 6.46785L20.9112 4.08211C18.3765 1.43767 15.1506 0.000479499 11.9246 0.000479499C8.75622 -0.0282644 5.76067 1.23647 3.48521 3.47849C1.26735 5.72051 0 8.73862 0 11.9292C0 18.4828 5.44383 23.8292 11.9246 23.8292C15.4674 23.8292 18.7222 22.2195 21.1417 19.5176V10.5207H12.2126V13.7688ZM34.4 6.09167C39.3285 6.09167 43.3583 10.1439 43.3583 15.0355C43.3583 19.985 39.3285 24.0083 34.4 24.0083C29.4715 24.0083 25.4417 19.985 25.4417 15.0355C25.4417 10.1439 29.4715 6.09167 34.4 6.09167ZM34.4 20.7665C37.618 20.7665 40.1693 18.2194 40.1693 15.0066C40.1693 11.8227 37.618 9.27557 34.4 9.27557C31.2109 9.27557 28.6307 11.8227 28.6307 15.0066C28.6307 18.2194 31.2109 20.7665 34.4 20.7665ZM55.7208 9.21263H51.4976V19.2113C51.4976 20.136 52.2446 20.8874 53.1639 20.8874H55.7208V24.0083H53.1639C50.5208 24.0083 48.3948 21.841 48.3948 19.2113V9.21263H45.8666V6.09167H48.3948V1.79167H51.4976V6.09167H55.7208V9.21263ZM81.7768 9.21263H86V6.09167H81.7768V1.79167H78.674V6.09167H76.1458V9.21263H78.674V19.2113C78.674 21.841 80.8 24.0083 83.4431 24.0083H86V20.8874H83.4431C82.5238 20.8874 81.7768 20.136 81.7768 19.2113V9.21263ZM69.1583 0H72.3833V24.0083H69.1583V0Z" fill="black"/>
<path fill-rule="evenodd" clip-rule="evenodd" d="M89 13C89 12.4477 89.4477 12 90 12H105C105.552 12 106 12.4477 106 13V23C106 23.5523 105.552 24 105 24H90C89.4477 24 89 23.5523 89 23V13Z" fill="#DA251D"/>
<path fill-rule="evenodd" clip-rule="evenodd" d="M99.6804 20.9875L97.5109 19.5965L95.3559 21L96.155 18.7143L94 17.3024L96.6659 17.2815L97.4939 15L98.3341 17.2753L101 17.2774L98.8571 18.7039L99.678 20.9896L99.6804 20.9875Z" fill="#FFFF00"/>
</svg>
